<svg xmlns="http://www.w3.org/2000/svg" width="24" height="24" viewBox="0 0 486 537">
  <defs>
    <style>
      .cls-1 {
        fill-rule: evenodd;
      }
    </style>
  </defs>
  <path class="cls-1" d="M238.122-.961C250.2-1.247,260.886.191,269.138,3.795l1.5,0.25V4.3h0.5v0.25h0.751V4.8h0.5v0.25h0.751V5.3h0.5v0.25l1.25,0.25v0.25l1.5,0.5V6.8h0.5v0.25h0.5V7.3l1.5,0.5,0.251,0.5,1.5,0.5q0.126,0.25.25,0.5h0.5v0.25h0.5l0.25,0.5,1.5,0.5,0.25,0.5,1,0.25q0.125,0.25.25,0.5h0.5v0.25h0.5v0.25h0.5l0.251,0.5,1.5,0.5q0.126,0.25.25,0.5h0.5v0.25h0.5l0.25,0.5,1.5,0.5,0.25,0.5,1.5,0.5,0.25,0.5h0.5v0.25h0.5l0.251,0.5,1.5,0.5q0.126,0.25.25,0.5l1.5,0.5q0.126,0.25.25,0.5l1,0.25,0.25,0.5,1.5,0.5,0.25,0.5,1.5,0.5q0.124,0.25.25,0.5h0.5v0.25h0.5q0.126,0.25.25,0.5l1.5,0.5q0.126,0.25.25,0.5l1.5,0.5,0.25,0.5,1,0.25,0.25,0.5h0.5v0.25h0.5v0.25h0.5q0.124,0.25.25,0.5l1.5,0.5q0.125,0.25.25,0.5h0.5v0.25h0.5q0.126,0.25.25,0.5l1.5,0.5,0.25,0.5,1.5,0.5,0.25,0.5,1,0.25q0.125,0.25.25,0.5l1.5,0.5q0.124,0.25.25,0.5l1.5,0.5c8.785,5.533,18.245,10.47,27.014,16.019h0.5v0.25h0.5V49.1h0.5q0.126,0.25.25,0.5l1.5,0.5,0.25,0.5h0.5v0.25h0.5q0.124,0.25.25,0.5l1.5,0.5q0.125,0.25.25,0.5l1.5,0.5,0.251,0.5h0.5V53.6h0.5l0.25,0.5,1.5,0.5,0.25,0.5,1.5,0.5,0.25,0.5,1,0.25q0.124,0.25.25,0.5h0.5v0.25h0.5v0.25h0.5l0.251,0.5,1.5,0.5q0.126,0.25.25,0.5h0.5v0.25h0.5l0.25,0.5,1.5,0.5,0.25,0.5,1.5,0.5,0.25,0.5,1,0.25,0.251,0.5,1.5,0.5q0.126,0.25.25,0.5l1.5,0.5q0.126,0.25.25,0.5h0.5v0.25h0.5l0.25,0.5,1.5,0.5,0.25,0.5,1.5,0.5q0.124,0.25.25,0.5l1,0.25q0.126,0.25.25,0.5l1.5,0.5q0.126,0.25.25,0.5l1.5,0.5c8.775,5.534,18.245,10.472,27.014,16.019h0.5v0.25h0.5v0.25h0.5l0.25,0.5,1.5,0.5q0.125,0.25.25,0.5h0.5v0.25h0.5q0.126,0.25.25,0.5l1.5,0.5q0.126,0.25.25,0.5l1.5,0.5q0.126,0.25.25,0.5h0.5V90.4h0.5l0.25,0.5,1.5,0.5q0.124,0.25.25,0.5l1.5,0.5q0.125,0.25.25,0.5l1,0.25q0.126,0.25.25,0.5h0.5V93.9h0.5v0.25h0.5q0.126,0.25.25,0.5l1.5,0.5,0.25,0.5,1,0.25q0.125,0.25.25,0.5l1.5,0.5q0.124,0.25.25,0.5l1.5,0.5,0.251,0.5h0.5v0.25h0.5q0.126,0.25.25,0.5l1.5,0.5,0.25,0.5,1.5,0.5,0.25,0.5h0.5v0.25h0.5q0.125,0.25.25,0.5l1.5,0.5,0.251,0.5,1.5,0.5,0.251,0.5,1,0.251c0.083,0.166.167,0.333,0.25,0.5l1.5,0.5c0.083,0.167.167,0.334,0.25,0.5l1.5,0.5,0.25,0.5,1,0.25c0.084,0.167.167,0.334,0.251,0.5h0.5l0.25,0.5h0.5q0.126,0.251.25,0.5h0.5c0.083,0.167.166,0.333,0.25,0.5h0.5l0.25,0.5h0.5l0.251,0.5h0.5l0.5,0.75h0.5l0.5,0.751h0.5l0.75,1h0.5l0.5,0.75,0.75,0.251,1.751,2h0.5l2,2.253,2.5,2.253v0.5l1.75,1.5v0.5l1.251,1v0.5l0.751,0.5v0.5l1,0.75v0.5l0.5,0.25v0.5l0.751,0.5v0.5q0.249,0.126.5,0.25v0.5l0.5,0.25v0.5l0.5,0.25v0.5l0.5,0.25q0.124,0.5.25,1l0.5,0.251q0.124,0.5.25,1l0.5,0.25q0.126,0.5.251,1L476,134.2v0.5h0.25v0.5h0.25v0.5h0.25v0.5H477v0.5h0.25v0.5H477.5v0.5h0.25v0.5H478v0.5h0.25q0.251,0.752.5,1.5H479v0.751h0.251q0.124,0.5.25,1h0.25v0.751H480v0.5h0.25q0.124,0.626.25,1.251h0.25v0.751H481v0.5h0.251q1.376,4.629,2.751,9.261,0.876,5.38,1.751,10.763,0.125,5.881.25,11.764V351.713c0,13.653.078,25.84-3.5,35.793l-0.75,3.254H481.5v0.5h-0.25q-0.126.751-.251,1.5h-0.25v0.5H480.5v0.751h-0.25q-0.125.5-.25,1h-0.25v0.751H479.5l-0.5,1.5h-0.25v0.5H478.5v0.5h-0.25v0.5H478v0.5h-0.25v0.5H477.5v0.5h-0.251v0.5H477v0.5h-0.25v0.5l-0.5.25q-0.251.75-.5,1.5l-0.5.25q-0.125.5-.25,1l-0.5.251v0.5l-0.5.25v0.5l-0.5.25v0.5l-0.5.25v0.5l-0.5.25v0.5l-0.75.5v0.5l-0.751.5v0.5l-0.75.5v0.5l-1,.751v0.5l-1.25,1v0.5l-2,1.752v0.5l-2.251,2-2,2.252h-0.5l-2,2.253h-0.5l-1,1.252h-0.5l-0.75,1h-0.5l-0.751,1h-0.5l-0.5.751h-0.5l-0.5.751h-0.5l-0.5.751h-0.5q-0.125.251-.25,0.5h-0.5l-0.5.751h-0.5q-0.124.25-.25,0.5h-0.5l-0.25.5h-0.5v0.25h-0.5q-0.125.25-.25,0.5l-1.5.5-0.251.5-1.5.5q-0.126.251-.25,0.5l-1,.25-0.25.5-1.5.5-0.25.5-1.5.5c-8.21,5.173-17.062,9.829-25.263,15.018l-1,.25v0.25h-0.5q-0.124.25-.25,0.5l-1.5.5-0.251.5-1.5.5c-0.084.166-.167,0.333-0.251,0.5h-0.5v0.251h-0.5l-0.25.5-1.5.5-0.25.5-1.5.5-0.25.5-1,.25c-0.084.167-.167,0.334-0.251,0.5l-1.5.5q-0.126.25-.25,0.5l-1.5.5c-11.3,7.128-23.477,13.381-34.768,20.525h-0.5v0.25h-0.5v0.251h-0.5c-0.083.166-.167,0.333-0.25,0.5l-1.5.5c-0.083.167-.167,0.334-0.25,0.5h-0.5v0.251h-0.5l-0.251.5-1.5.5-0.25.5-1.5.5q-0.126.25-.25,0.5h-0.5v0.25h-0.5l-0.25.5-1.5.5-0.25.5-1.5.5q-0.124.25-.25,0.5l-1,.25q-0.126.251-.25,0.5h-0.5v0.25h-0.5v0.251h-0.5q-0.126.249-.25,0.5l-1.5.5-0.25.5h-0.5v0.251h-0.5l-0.25.5-1.5.5q-0.125.251-.25,0.5l-1.5.5q-0.124.25-.25,0.5h-0.5v0.25h-0.5q-0.126.251-.25,0.5l-1.5.5q-0.126.25-.25,0.5l-1.5.5-0.25.5-1,.25q-0.125.25-.25,0.5h-0.5v0.25h-0.5v0.25h-0.5q-0.125.25-.25,0.5l-1.5.5c-8.78,5.536-18.246,10.471-27.014,16.019l-1.5.5q-0.126.249-.25,0.5l-1.5.5-0.25.5-1,.251q-0.124.249-.25,0.5l-1.5.5q-0.124.25-.25,0.5l-1.5.5q-0.125.251-.25,0.5h-0.5v0.25h-0.5q-0.126.251-.25,0.5l-1.5.5-0.25.5-1.5.5-0.25.5-1,.25q-0.124.25-.25,0.5l-1.5.5-0.251.5-1.5.5-0.251.5-1,.251c-0.083.166-.167,0.333-0.25,0.5l-1.5.5c-0.083.167-.167,0.334-0.25,0.5l-1.5.5-0.25.5h-0.5v0.25h-0.5c-0.084.167-.167,0.334-0.251,0.5l-1.5.5-0.251.5h-0.5v0.25h-0.5v0.25h-0.5v0.251h-0.5l-0.25.5-1.5.5v0.25h-0.5v0.25l-1.5.5v0.25h-0.751v0.251h-0.5v0.25l-1,.25v0.25h-0.75v0.251h-0.5v0.25l-1.251.25v0.251h-0.75v0.25h-0.5v0.25l-1.5.251v0.25h-0.751v0.25h-0.75v0.251h-0.75v0.25l-1.751.25v0.25h-1v0.251l-3,.5v0.251h-1.251v0.25h-1.251v0.25h-1.5v0.251h-1.75v0.25h-2v0.25h-3v0.25h-2.5c-2.154,0-5.022.239-6.754-.25h-3v-0.25h-2.251v-0.25H232.62v-0.251h-1.5v-0.25h-1.5v-0.25h-1.251v-0.251h-1v-0.25h-1.251l-10.755-3.254v-0.25h-0.5V532.18H214.11v-0.25l-1.251-.25v-0.25h-0.5v-0.251h-0.75v-0.25l-1-.25v-0.251h-0.5v-0.25h-0.75v-0.25l-1.5-.5v-0.25h-0.5v-0.25h-0.5v-0.251h-0.5v-0.25h-0.5v-0.25h-0.5v-0.251h-0.5v-0.25h-0.5v-0.25h-0.5v-0.251h-0.5c-0.084-.166-0.167-0.333-0.251-0.5l-1.5-.5c-0.084-.167-0.167-0.333-0.25-0.5l-1.5-.5q-0.126-.251-0.25-0.5h-0.5v-0.25h-0.5c-0.083-.167-0.167-0.334-0.25-0.5l-1.5-.5q-0.125-.25-0.25-0.5l-1.5-.5q-0.124-.25-0.25-0.5l-1-.25q-0.126-.25-0.25-0.5h-0.5v-0.25h-0.5v-0.25h-0.5q-0.126-.25-0.25-0.5l-1.5-.5c-0.083-.166-0.167-0.333-0.25-0.5l-1-.25q-0.124-.25-0.25-0.5l-1.5-.5c-0.083-.167-0.166-0.333-0.25-0.5l-1.5-.5q-0.124-.251-0.25-0.5h-0.5v-0.251h-0.5q-0.126-.25-0.25-0.5l-1.5-.5-0.25-.5-1.5-.5-0.25-.5h-0.5v-0.25h-0.5q-0.125-.25-0.25-0.5l-1.5-.5q-0.125-.25-0.25-0.5l-1.5-.5-0.251-.5-1-.25-0.25-.5-1.5-.5-0.25-.5-1.5-.5-0.25-.5-1-.251c-0.083-.167-0.166-0.333-0.25-0.5l-1.5-.5-0.251-.5-1.5-.5c-8.778-5.536-18.238-10.473-27.014-16.019h-0.5v-0.251h-0.5v-0.25h-0.5l-0.25-.5-1.5-.5-0.25-.5h-0.5v-0.25h-0.5q-0.124-.251-0.25-0.5l-1.5-.5-0.251-.5-1.5-.5q-0.126-.249-0.25-0.5h-0.5v-0.25h-0.5l-0.25-.5-1.5-.5-0.25-.5-1.5-.5-0.25-.5-1-.251-0.251-.5h-0.5v-0.251h-0.5v-0.25h-0.5q-0.126-.251-0.25-0.5l-1.5-.5q-0.126-.25-0.25-0.5h-0.5v-0.25h-0.5l-0.25-.5-1.5-.5-0.25-.5-1.5-.5q-0.124-.251-0.25-0.5l-1-.25q-0.126-.25-0.25-0.5l-1.5-.5q-0.126-.249-0.25-0.5l-1.5-.5-0.25-.5h-0.5V473.86h-0.5c-0.083-.167-0.167-0.333-0.25-0.5l-1.5-.5q-0.124-.25-0.25-0.5l-1.5-.5q-0.125-.251-0.25-0.5l-1-.25q-0.126-.251-0.25-0.5l-1.5-.5-0.25-.5-1.5-.5C93.3,462.952,82.785,457.5,73.038,451.333h-0.5v-0.25h-0.5v-0.25h-0.5l-0.25-.5-1.5-.5-0.25-.5h-0.5v-0.25h-0.5l-0.25-.5-1.5-.5-0.25-.5-1.5-.5-0.25-.5h-0.5v-0.251h-0.5l-0.25-.5-1.5-.5-0.25-.5-1.5-.5-0.25-.5-1-.25-0.25-.5h-0.5v-0.25h-0.5v-0.25h-0.5l-0.25-.5-1.5-.5-0.25-.5-1-.25-0.25-.5-1.5-.5-0.25-.5-1.5-.5-0.25-.5-1.5-.5-0.25-.5h-0.5v-0.25h-0.5l-0.25-.5-1.5-.5-0.25-.5-1.5-.5-0.25-.5h-0.5v-0.25h-0.5l-0.25-.5-1.5-.5-0.25-.5-1.5-.5-0.25-.5-1-.251-0.25-.5-1.5-.5-0.25-.5-1-.251-0.25-.5-1-.251-0.25-.5h-0.5l-0.25-.5h-0.5l-0.25-.5h-0.5l-0.25-.5h-0.5l-0.25-.5h-0.5l-0.5-.75h-0.5l-0.5-.751h-0.5l-0.75-1h-0.5l-1.251-1.5h-0.5l-2.251-2.5-4.252-4v-0.5l-1.251-1v-0.5l-1-.751v-0.5l-0.75-.5v-0.5l-0.75-.5v-0.5l-0.75-.5v-0.5l-0.5-.25v-0.5l-0.5-.25v-0.5l-0.5-.25v-0.5l-0.5-.251-0.25-1-0.5-.25-0.25-1-0.5-.251-0.5-1.5-0.5-.25v-0.5H9.5v-0.5H9.255v-0.5H9v-0.5H8.755v-0.5H8.5v-0.5H8.254v-0.5H8l-0.5-1.5H7.254v-0.751H7v-0.5H6.753l-0.25-1H6.253l-4-12.014V382.5H2l-0.25-2.252H1.5v-1H1.251v-1.5H1v-1.5H0.75v-1.752H0.5v-2H0.25L0,360.224V171.5H0.25v-2.754l0.25-3.5H0.75v-2c0.634-2.161.852-4.929,1.5-7.009v-1.251H2.5l0.5-3h0.25l0.25-1.752h0.25V149.47H4v-0.751h0.25v-1H4.5l0.25-1.5H5v-0.5h0.25l0.5-2.253,4.5-9.762,0.5-.25,0.5-1.5,0.5-.25,0.25-1,0.5-.25v-0.5l0.5-.251v-0.5l0.5-.251v-0.5l0.5-.251v-0.5l0.5-.25v-0.5l0.5-.25v-0.5l0.75-.5v-0.5l0.75-.5v-0.5l1-.751v-0.5l1-.751v-0.5l2-1.752v-0.5l1.251-1,2.251-2.5h0.5l1.751-2h0.5l1-1.251h0.5l0.25-.5h0.25l0.25-.5h0.5l0.5-.751h0.5l0.5-.751h0.5l0.25-.5,0.75-.25v-0.25h0.5l0.25-.5h0.5l0.25-.5h0.5l0.25-.5,0.75-.251v-0.25l1-.25,0.25-.5,1.5-.5,0.25-.5,1.5-.5,0.25-.5,1.5-.5,0.25-.5,1-.251,0.25-.5,1.5-.5,0.25-.5,1.5-.5,0.25-.5,1-.25,0.25-.5,1.5-.5,0.25-.5,1.5-.5,0.25-.5h0.5v-0.25h0.5l0.25-.5,1.5-.5,0.25-.5h0.5v-0.25h0.5v-0.25h0.5l0.25-.5,1.5-.5,0.25-.5h0.5V93.9h0.5l0.25-.5,1.5-.5,0.25-.5,1.5-.5,0.25-.5,1-.25,0.25-.5,1.5-.5,0.25-.5,1.5-.5,0.25-.5,1-.25,0.25-.5,1.5-.5,0.25-.5,1.5-.5,0.25-.5h0.5v-0.25h0.5l0.25-.5,1.5-.5,0.25-.5,1.5-.5,0.25-.5h0.5V82.89h0.5l0.25-.5,1.5-.5,0.25-.5,1.5-.5,0.25-.5,1-.25,0.25-.5,1.5-.5,0.25-.5,1.5-.5,0.25-.5h0.5v-0.25h0.5l0.25-.5,1.5-.5,0.25-.5,1.5-.5,0.25-.5,1-.25,0.25-.5,1.5-.5,0.25-.5,1.5-.5c9.757-6.153,20.269-11.6,30.016-17.771h0.5v-0.25h0.5v-0.25h0.5l0.251-.5,1.5-.5,0.251-.5,1-.25,0.25-.5,1.5-.5,0.25-.5,1.5-.5,0.25-.5h0.5V49.85h0.5l0.251-.5,1.5-.5,0.251-.5h0.5V48.1h0.5v-0.25h0.5q0.126-.25.25-0.5l1.5-.5q0.126-.25.25-0.5h0.5V46.1h0.5l0.25-.5,1.5-.5q0.125-.25.25-0.5l1.5-.5q0.125-.25.25-0.5l1-.25q0.126-.25.25-0.5h0.5v-0.25h0.5v-0.25h0.5q0.126-.25.25-0.5l1.5-.5,0.25-.5,1-.25q0.124-.25.25-0.5l1.5-.5q0.125-.25.25-0.5l1.5-.5q0.124-.25.25-0.5l1-.25q0.126-.25.25-0.5l1.5-.5,0.25-.5,1.5-.5,0.25-.5h0.5v-0.25h0.5q0.124-.25.25-0.5l1.5-.5q0.125-.25.25-0.5l1.5-.5,0.251-.5h0.5v-0.25h0.5l0.25-.5,1.5-.5,0.25-.5,1.5-.5,0.25-.5,1-.25,0.251-.5,1.5-.5,0.251-.5,1.5-.5q0.126-.25.25-0.5l1-.25,0.25-.5,1.5-.5,0.25-.5,1.5-.5c7.232-4.561,15.03-8.7,22.261-13.266l1.5-.5,0.25-.5h0.5V10.3h0.5q0.124-.25.25-0.5l1.5-.5q0.125-.25.25-0.5h0.5V8.551h0.5V8.3h0.5V8.05h0.5V7.8h0.5V7.549h0.5V7.3h0.5V7.049h0.5V6.8h0.5V6.548h0.5V6.3l1-.25V5.8h0.5V5.547h0.75V5.3l1-.25V4.8h0.75V4.546h0.5V4.3h0.75V4.045h0.5V3.795l1.5-.25c2-.8,4.388-1.534,6.5-2.253l9-1.752C234.327-.809,237.384-0.3,238.122-0.961Zm1,24.529c-0.715.581-2.194-.057-3.252,0.25v0.25h-2.5v0.25h-1.751v0.25h-1.5v0.25h-1.5v0.25h-1.251v0.25l-2.251.25v0.25h-1v0.25h-0.75v0.25l-2,.25v0.25h-0.751v0.25h-0.75v0.25h-0.75v0.25h-0.751v0.25l-1.5.25v0.25h-0.5v0.25l-1.5.25v0.25l-1,.25v0.25h-0.75v0.25l-1,.25v0.25l-2.251.751-0.25.5-1.5.5-0.25.5h-0.5v0.25h-0.5q-0.125.25-.25,0.5l-1.5.5-0.251.5-1.5.5-0.251.5-1,.25-0.25.5-1.5.5-0.25.5-1.5.5-0.25.5h-0.5v0.25h-0.5l-0.251.5-1.5.5-0.251.5-1.5.5q-0.126.25-.25,0.5l-1,.25-0.25.5-1.5.5-0.25.5-1.5.5c-9.756,6.153-20.268,11.6-30.015,17.771h-0.5v0.25h-0.5v0.25h-0.5l-0.25.5-1.5.5-0.25.5-1,.25-0.251.5-1.5.5-0.251.5-1.5.5q-0.126.25-.25,0.5h-0.5v0.25h-0.5l-0.25.5-1.5.5-0.25.5-1.5.5q-0.125.25-.25,0.5h-0.5v0.25h-0.5l-0.251.5-1.5.5q-0.126.25-.25,0.5l-1.5.5q-0.126.25-.25,0.5l-1,.25-0.25.5-1,.25v0.25h-0.5q-0.124.25-.25,0.5l-1.5.5q-0.125.25-.25,0.5l-1.5.5q-0.124.25-.25,0.5l-1,.25q-0.126.25-.25,0.5l-1.5.5-0.25.5-1.5.5-0.25.5h-0.5v0.25h-0.5q-0.124.25-.25,0.5l-1.5.5q-0.124.25-.25,0.5l-1.5.5-0.251.5h-0.5v0.25h-0.5l-0.25.5-1.5.5-0.25.5-1.5.5-0.25.5-1,.25-0.251.5-1.5.5-0.251.5-1.5.5q-0.126.25-.25,0.5l-1,.25-0.25.5-1.5.5-0.25.5-1.5.5-0.25.5-1,.25-0.251.5-1.5.5q-0.126.25-.25,0.5l-1.5.5q-0.126.25-.25,0.5l-1,.25-0.25.5-1.5.5q-0.124.25-.25,0.5l-1.5.5q-0.125.25-.25,0.5h-0.5V94.4h-0.5q-0.126.25-.25,0.5l-1.5.5-0.25.5-1.5.5-0.25.5H96.3v0.25H95.8l-0.25.5-1.5.5-0.25.5-1.5.5-0.25.5-1,.25-0.25.5-1.5.5-0.25.5-1.5.5-0.25.5-1,.251-0.25.5-1.5.5-0.25.5-1.5.5-0.25.5-1,.25-0.25.5-1.5.5-0.25.5-1.5.5-0.25.5-1,.25-0.25.5-1.5.5-0.25.5-1.5.5-0.25.5h-0.5v0.251h-0.5l-0.25.5-1.5.5-0.25.5-1.5.5-0.25.5h-0.5v0.25h-0.5l-0.25.5-1.5.5-0.25.5-1.5.5-0.25.5-1.5.5-0.25.5-1,.251-0.25.5-1.5.5-0.25.5-1.5.5-0.25.5-1,.25-0.25.5-1.5.5-0.25.5-1.5.5-0.25.5h-0.5v0.25h-0.5l-0.75,1h-0.5l-0.75,1h-0.5l-1,1.251h-0.5l-2,2.253h-0.5l-0.75,1-2.251,2v0.5l-2.251,2v0.5l-1.251,1v0.5l-1,.751v0.5l-0.75.5v0.5l-0.75.5v0.5l-0.75.5v0.5l-0.5.25-0.25.751h-0.25v0.5l-0.5.25v0.5l-0.5.25v0.5l-0.5.25v0.5h-0.25v0.5l-0.5.25-0.5,1.5-0.5.25v0.5h-0.25v0.5h-0.25v0.5h-0.25v0.5h-0.25v0.5h-0.25v0.5h-0.25v0.5h-0.25v0.5h-0.25v0.5h-0.25v0.5h-0.25l-0.25,1h-0.25v0.5h-0.25v0.751h-0.25l-0.25,1h-0.25v0.751h-0.25v0.5h-0.25l-0.25,1.5h-0.25v0.5h-0.25v0.751h-0.25v0.751h-0.25v0.751h-0.25v0.751h-0.25v1h-0.25v0.751h-0.25l-0.25,1.752h-0.25v1h-0.25l-0.25,2.253h-0.25l-0.25,2.5h-0.25v1.5h-0.25V173.5h-0.25v2h-0.25V366.982h0.25v1.251h0.25l0.25,2.253h0.25v1h0.25v1h0.25v1h0.25v0.75h0.25v1h0.25v0.751h0.25v0.751h0.25v0.75h0.25l0.25,1.5h0.25v0.5h0.25l0.25,1.5h0.25v0.5h0.25v0.751h0.25l0.25,1h0.25V384h0.25v0.5h0.25l0.25,1h0.25v0.5h0.25v0.5h0.25v0.5h0.25v0.5h0.25v0.5h0.25v0.5h0.25v0.5h0.25v0.5h0.25v0.5h0.25v0.5l0.5,0.25,0.25,1,0.5,0.25,0.25,1,0.5,0.25,0.25,1,0.5,0.25v0.5h0.25l0.25,0.751,0.5,0.251v0.5l0.75,0.5v0.5l0.75,0.5v0.5l0.5,0.25v0.5l1,0.751v0.5l1,0.751v0.5l1.5,1.251v0.5l3.5,3.254,3,3.254h0.5l1.251,1.5h0.5l1,1.252h0.5l0.25,0.5,0.75,0.251v0.25l1.5,0.5,0.25,0.5,1,0.251,0.25,0.5,1.5,0.5,0.25,0.5,1.5,0.5,0.25,0.5,1,0.25v0.25h0.5l0.25,0.5,1,0.25,0.25,0.5,1.5,0.5,0.25,0.5,1.5,0.5,0.25,0.5h0.5v0.25h0.5l0.25,0.5,1.5,0.5,0.25,0.5,1.5,0.5,0.25,0.5h0.5V424.3h0.5l0.25,0.5,1.5,0.5,0.25,0.5,1.5,0.5,0.25,0.5,1,0.25,0.25,0.5h0.5v0.25h0.5v0.25h0.5l0.25,0.5,1.5,0.5,0.25,0.5h0.5v0.25h0.5l0.25,0.5,1.5,0.5,0.25,0.5,1.5,0.5,0.25,0.5h0.5v0.251h0.5l0.25,0.5,1.5,0.5,0.25,0.5,1.5,0.5,0.25,0.5,1,0.25,0.25,0.5,1.5,0.5,0.25,0.5,1.5,0.5,0.25,0.5h0.5v0.25h0.5l0.25,0.5,1.5,0.5,0.25,0.5,1.5,0.5,0.25,0.5,1,0.251,0.25,0.5,1.5,0.5,0.25,0.5,1.5,0.5c9.757,6.152,20.268,11.6,30.016,17.771l1.5,0.5q0.126,0.25.25,0.5l1.5,0.5q0.126,0.25.25,0.5h0.5v0.25h0.5l0.25,0.5,1.5,0.5,0.25,0.5,1.5,0.5q0.125,0.251.25,0.5l1.5,0.5c0.083,0.167.166,0.333,0.25,0.5l1,0.251q0.126,0.249.25,0.5h0.5v0.251h0.5v0.25h0.5l0.25,0.5,1.5,0.5c9.756,6.153,20.268,11.6,30.015,17.771l1.5,0.5q0.126,0.251.25,0.5l1.5,0.5,0.25,0.5,1,0.25,0.25,0.5,1.5,0.5q0.125,0.25.25,0.5l1.5,0.5q0.124,0.249.25,0.5l1,0.25q0.126,0.251.25,0.5l1.5,0.5,0.25,0.5,1.5,0.5,0.25,0.5h0.5v0.251h0.5c0.083,0.167.166,0.333,0.25,0.5l1.5,0.5q0.125,0.25.25,0.5l1.5,0.5,0.251,0.5h0.5v0.25h0.5l0.25,0.5,1.5,0.5,0.25,0.5,1.5,0.5,0.25,0.5,1,0.25q0.125,0.25.25,0.5h0.5v0.25h0.5v0.251h0.5c0.084,0.166.167,0.333,0.251,0.5l1.5,0.5,0.25,0.5,1,0.251c0.083,0.167.167,0.333,0.25,0.5l1.5,0.5,0.25,0.5,1.5,0.5,0.25,0.5h0.5v0.25h0.5l0.251,0.5h0.5v0.25l1,0.25v0.25h0.751v0.251h0.5v0.25l1,0.25V507.4h0.751v0.25h0.5v0.25l1.251,0.251v0.25h0.75v0.25h0.5v0.25l10.006,3h1.25c1.209,0.373,2.976.631,4.252,1h1.751v0.251l5.253,0.25c0.479,0.042.5,0.25,0.5,0.25h7.5v-0.25h3.5v-0.25h2.251v-0.251h1.751v-0.25h1.751v-0.25h1.251v-0.251h1.25v-0.25h1.251v-0.25h1v-0.25h1v-0.251l2-.25v-0.25h0.75V510.4h0.751v-0.25l2.5-.5V509.4h0.5v-0.25l2.251-.5V508.4h0.5v-0.25h0.75V507.9l1.5-.5V507.15l1-.25q0.126-.25.25-0.5l1.5-.5q0.126-.25.25-0.5l1.5-.5,0.25-.5h0.5v-0.25h0.5q0.124-.25.25-0.5h0.5V503.4h0.5v-0.25h0.5q0.125-.251.25-0.5l1.5-.5q0.124-.249.25-0.5h0.5v-0.251h0.5q0.126-.249.25-0.5l1.5-.5c0.083-.167.167-0.333,0.25-0.5l1.5-.5,0.25-.5,1-.25q0.125-.25.25-0.5l1.5-.5q0.125-.251.25-0.5l1.5-.5,0.251-.5,1-.25,0.25-.5,1.5-.5,0.25-.5,1.5-.5,0.25-.5,1-.25,0.251-.5,1.5-.5,0.251-.5,1.5-.5q0.126-.25.25-0.5l1-.251c0.083-.167.167-0.334,0.25-0.5l1.5-.5,0.25-.5,1.5-.5,0.25-.5h0.5v-0.25h0.5l0.251-.5,1.5-.5q0.126-.25.25-0.5l1.5-.5q0.126-.249.25-0.5h0.5v-0.25h0.5l0.25-.5,1.5-.5q0.125-.249.25-0.5l1.5-.5q0.124-.25.25-0.5l1-.251,0.25-.5,1.5-.5q0.126-.251.25-0.5l1.5-.5,0.25-.5h0.5v-0.25h0.5q0.125-.251.25-0.5l1.5-.5q0.125-.25.25-0.5l1.5-.5q0.124-.251.25-0.5l1-.25q0.126-.25.25-0.5l1.5-.5c0.083-.166.167-0.333,0.25-0.5h0.5v-0.25h0.5v-0.251h0.5c0.083-.167.167-0.334,0.25-0.5l1.5-.5,0.25-.5h0.5v-0.25h0.5q0.124-.25.25-0.5l1.5-.5,0.251-.5,1.5-.5q0.126-.251.25-0.5l1-.25,0.25-.5,1.5-.5,0.25-.5,1.5-.5c11.3-7.127,23.477-13.38,34.768-20.524h0.5v-0.251h0.5v-0.25h0.5c0.084-.167.167-0.334,0.251-0.5l1.5-.5q0.126-.25.25-0.5h0.5v-0.25h0.5l0.25-.5,1.5-.5,0.25-.5,1.5-.5,0.25-.5h0.5v-0.25h0.5l0.251-.5,1.5-.5q0.126-.249.25-0.5l1.5-.5c0.084-.167.167-0.333,0.25-0.5l1-.251,0.25-.5,1.5-.5,0.25-.5,1.5-.5q0.125-.251.25-0.5l1-.25q0.126-.25.25-0.5l1.5-.5q0.126-.25.25-0.5l1.5-.5c8.78-5.537,18.24-10.48,27.014-16.02h0.5v-0.25h0.5v-0.25h0.5l0.25-.5,1.5-.5q0.124-.251.25-0.5h0.5v-0.25h0.5q0.126-.25.25-0.5l1.5-.5q0.126-.249.25-0.5l1.5-.5c0.083-.167.167-0.333,0.25-0.5l1-.251c0.083-.166.167-0.333,0.25-0.5l1.5-.5,0.5-.751h0.25c0.083-.167.167-0.333,0.25-0.5h0.5l1.5-1.752h0.5l1.251-1.5,4.252-4v-0.5l1.751-1.5v-0.5l1.251-1v-0.5l0.75-.5v-0.5l0.751-.5v-0.5l0.75-.5v-0.5l0.5-.25v-0.5l0.751-.5v-0.5l0.5-.25q0.124-.5.25-1h0.25c0.084-.25.167-0.5,0.25-0.751l0.5-.25v-0.5h0.25v-0.5l0.5-.25q0.125-.5.25-1l0.5-.25v-0.5h0.25v-0.5h0.251v-0.5h0.25v-0.5h0.25v-0.5h0.25q0.124-.5.25-1h0.25v-0.5h0.25v-0.5h0.25v-0.5h0.251v-0.5h0.25q0.125-.5.25-1h0.25V384h0.25v-0.751h0.25v-0.5h0.25q0.126-.625.25-1.252h0.251v-0.751h0.25v-0.5h0.25q0.25-1.126.5-2.253h0.25v-0.751h0.25v-0.751h0.251v-0.751h0.25v-0.751h0.25q0.25-1.375.5-2.753h0.25v-1h0.25v-1.252h0.25v-1.251h0.251v-1.252h0.25v-1.251h0.25V173c-0.358-1.232-.628-3.059-1-4.255v-1.251h-0.25q-0.125-1-.25-2h-0.25q-0.125-1-.25-2h-0.25q-0.126-.876-0.25-1.752h-0.251v-0.751h-0.25v-0.751h-0.25q-0.251-1.127-.5-2.253h-0.25v-0.5h-0.25q-0.126-.751-0.251-1.5h-0.25v-0.5h-0.25v-0.751h-0.25q-0.124-.5-0.25-1h-0.25v-0.751h-0.25l-0.5-1.5h-0.25v-0.5h-0.25v-0.5h-0.25v-0.5h-0.25v-0.5h-0.25v-0.5h-0.25v-0.5h-0.25v-0.5h-0.251v-0.5h-0.25v-0.5l-0.5-.25-0.5-1.5h-0.25c-0.084-.25-0.167-0.5-0.25-0.751l-0.5-.25q-0.125-.5-0.25-1h-0.25c-0.083-.251-0.167-0.5-0.25-0.751l-0.5-.251v-0.5h-0.25c-0.084-.251-0.167-0.5-0.251-0.751l-0.5-.25v-0.5l-0.75-.5v-0.5l-0.751-.5v-0.5l-0.75-.5v-0.5l-1-.751v-0.5l-1-.751v-0.5l-1.5-1.251V133.2l-0.5-.251v-0.5l-2.752-2.5-1.5-1.753h-0.5l-1.75-2h-0.5l-1-1.251h-0.5l-0.751-1h-0.5q-0.25-.375-0.5-0.751h-0.5q-0.249-.375-0.5-0.75h-0.5q-0.126-.251-0.25-0.5l-1.5-.5-0.25-.5-1-.251q-0.125-.249-0.25-0.5l-1.5-.5q-0.125-.251-0.25-0.5l-1.5-.5-0.251-.5-1-.25q-0.126-.251-0.25-0.5l-1.5-.5-0.25-.5-1.5-.5-0.25-.5-1-.25q-0.125-.251-0.25-0.5l-1.5-.5-0.251-.5-1.5-.5c-0.084-.166-0.167-0.333-0.251-0.5h-0.5v-0.25h-0.5l-0.25-.5-1.5-.5c-0.083-.167-0.167-0.333-0.25-0.5l-1.5-.5c-0.083-.167-0.167-0.334-0.25-0.5h-0.5v-0.251h-0.5c-0.084-.167-0.167-0.334-0.251-0.5l-1.5-.5-0.251-.5-1.5-.5q-0.126-.251-0.25-0.5l-1.5-.5q-0.126-.251-0.25-0.5l-1-.25-0.25-.5-1.5-.5q-0.124-.249-0.25-0.5l-1.5-.5c-0.083-.167-0.166-0.333-0.25-0.5l-1-.251q-0.126-.249-0.25-0.5l-1.5-.5q-0.126-.251-0.25-0.5l-1.5-.5-0.25-.5h-0.5v-0.25h-0.5q-0.124-.251-0.25-0.5l-1.5-.5q-0.124-.25-0.25-0.5l-1.5-.5q-0.125-.25-0.25-0.5h-0.5v-0.25h-0.5q-0.126-.25-0.25-0.5l-1.5-.5-0.25-.5-1.5-.5-0.25-.5-1-.25q-0.124-.25-0.25-0.5l-1.5-.5-0.251-.5-1.5-.5-0.251-.5h-0.5v-0.25h-0.5l-0.25-.5-1.5-.5-0.25-.5-1.5-.5-0.25-.5-1-.25-0.251-.5-1.5-.5-0.251-.5-1.5-.5c-9.757-6.152-20.269-11.6-30.016-17.771l-1-.25v-0.25h-0.5l-0.251-.5-1.5-.5-0.251-.5-1.5-.5q-0.126-.25-0.25-0.5l-1-.25-0.25-.5-1.5-.5-0.25-.5-1.5-.5-0.25-.5h-0.5v-0.25h-0.5l-0.251-.5-1.5-.5q-0.126-.25-0.25-0.5l-1.5-.5q-0.126-.25-0.25-0.5h-0.5v-0.25h-0.5l-0.25-.5-1.5-.5q-0.124-.25-0.25-0.5l-1.5-.5q-0.124-.25-0.25-0.5l-1-.25q-0.126-.25-0.25-0.5h-0.5v-0.25h-0.5v-0.25h-0.5q-0.126-.25-0.25-0.5l-1.5-.5-0.25-.5h-0.5v-0.25h-0.5q-0.125-.25-0.25-0.5l-1.5-.5q-0.124-.25-0.25-0.5l-1.5-.5q-0.125-.25-0.25-0.5h-0.5V52.6h-0.5q-0.126-.25-0.25-0.5l-1.5-.5-0.25-.5-1.5-.5-0.25-.5-1-.25q-0.125-.25-0.25-0.5l-1.5-.5q-0.124-.25-0.25-0.5l-1-.25v-0.25h-0.5l-0.251-.5-1-.25-0.25-.5-1.5-.5-0.25-.5-1.5-.5-0.25-.5h-0.5v-0.25h-0.5q-0.125-.25-0.25-0.5l-1.5-.5-0.251-.5-1.5-.5q-0.126-.25-0.25-0.5h-0.5V41.59h-0.5l-0.25-.5-1.5-.5-0.25-.5-1.5-.5-0.25-.5-1-.25-0.251-.5h-0.5v-0.25h-0.5v-0.25h-0.5q-0.126-.25-0.25-0.5l-1.5-.5q-0.126-.25-0.25-0.5h-0.5v-0.25h-0.5l-0.25-.5-1.5-.5q-0.124-.25-0.25-0.5l-1.5-.5q-0.125-.25-0.25-0.5l-1-.25q-0.126-.25-0.25-0.5l-1.5-.5q-0.126-.25-0.25-0.5l-1.5-.5-0.25-.5h-0.5v-0.25h-0.5v-0.25h-0.75v-0.25l-1-.25v-0.25h-0.75v-0.25h-0.5v-0.25l-9.755-3.254-9.255-1.752h-2.5v-0.25Z"/>
  <path class="cls-1" d="M169.436,96h4.532v0.252H178.5V96.5h2.518v0.252h2.014c1.239,0.366,3.077.633,4.281,1.009h1.258v0.252h1.259v0.252l2.77,0.5v0.252l2.014,0.252v0.252h0.755v0.252h0.756v0.252h0.755v0.252h0.755v0.253l1.511,0.252v0.252h0.5V101.3l1.511,0.252V101.8l1.007,0.253v0.252h0.755v0.252l1.007,0.253v0.252h0.756v0.252l1.51,0.505v0.252h0.5v0.252h0.5v0.253h0.5v0.252h0.5v0.252h0.5v0.253h0.5v0.252h0.5v0.252h0.5l0.252,0.5,1.51,0.5,0.252,0.5h0.5v0.252h0.5v0.253L214,108.111l0.252,0.5h0.5q0.126,0.252.251,0.5l1.008,0.253,0.5,0.757h0.5v0.252l0.755,0.252,0.252,0.5h0.5l0.252,0.505,0.755,0.252,0.5,0.757h0.5l0.252,0.5h0.252l0.252,0.505h0.5q0.5,0.631,1.007,1.262h0.5l1.259,1.514h0.5l2.77,3.027,3.021,2.776v0.5l1.762,1.514v0.5l1.008,0.757v0.5q0.5,0.38,1.007.757,0.126,0.379.251,0.757l0.5,0.253v0.5l0.755,0.5,0.252,0.757,0.5,0.252v0.5l0.5,0.252v0.5l0.5,0.252v0.5l0.5,0.252v0.505l0.5,0.252v0.5l0.5,0.252,0.252,1.009,0.5,0.253q0.126,0.5.251,1.009l0.5,0.252v0.5h0.252v0.5h0.252v0.5h0.251v0.5h0.252v0.5l0.5,0.253q0.126,0.5.251,1.009h0.252l0.5,1.514h0.251v0.757h0.252v0.5h0.252l0.252,1.01h0.252v0.756h0.251l0.252,1.01h0.252v0.757h0.252v0.5h0.251v0.757h0.252v0.5h0.252l3.021,10.345v1.261c0.352,1.15.664,2.849,1.007,4.037l0.5,7.318a29.494,29.494,0,0,1,0,9.84v3.28q-0.756,4.668-1.511,9.336l-2.517,8.831H246.73v0.5h-0.252l-0.252,1.514h-0.252q-0.126.631-.251,1.262h-0.252v0.5h-0.252v0.757q-2.265,4.542-4.532,9.084l-0.5.252-0.252,1.009-0.5.253q-0.126.5-.251,1.009l-0.5.252v0.5l-0.5.252v0.5l-0.5.252v0.5l-0.5.252V221.4l-0.5.252v0.5l-0.755.5v0.5l-0.756.5v0.5l-0.755.505v0.5l-1.007.757v0.5l-1.511,1.261v0.5l-2.266,2.019v0.5q-0.5.38-1.007,0.757l-2.014,2.271h-0.5l-2.266,2.523h-0.5q-0.5.631-1.007,1.262h-0.5l-0.755,1.009h-0.5l-0.5.757h-0.5l-0.5.757h-0.5l-0.5.757h-0.5l-0.252.5-0.755.253v0.252h-0.5l-0.252.5h-0.5l-0.252.5h-0.5l-0.252.5-0.755.252v0.253h-0.5v0.252h-0.5l-0.252.5-1.511.5c-0.084.168-.168,0.337-0.251,0.5h-0.5v0.252h-0.5v0.252h-0.5v0.253h-0.5v0.252h-0.5v0.252h-0.5v0.253h-0.5v0.252h-0.5v0.252h-0.5v0.253l-1.511.5v0.253h-0.755V248.9l-1.007.252v0.253h-0.756v0.252h-0.5v0.252h-0.756v0.252h-0.5v0.253l-1.511.252v0.252h-0.5v0.253l-3.273.757v0.252h-0.756v0.252h-0.755v0.253l-2.014.252v0.252l-2.014.253V253.7h-1.259c-1.147.353-2.842,0.666-4.029,1.009h-1.762v0.252H180.01v0.253h-3.021v0.252h-3.021c-2.391,0-5.6.3-7.554-.252h-3.021v-0.253h-2.014v-0.252h-1.762v-0.252h-1.511V254.2H156.6v-0.253h-1.259V253.7l-2.266-.252v-0.253h-1.007V252.94h-1.007v-0.252H150.3v-0.253h-1.007v-0.252h-0.755v-0.252h-0.756v-0.253h-0.755v-0.252h-0.755v-0.252h-0.756v-0.253l-1.51-.252v-0.252h-0.5v-0.253l-1.51-.252V249.66l-1.008-.252v-0.253H140.23V248.9l-1.007-.252V248.4h-0.5v-0.252h-0.755v-0.252l-1.51-.5v-0.252h-0.5v-0.253h-0.5v-0.252l-1.51-.5-0.252-.5-1.511-.5-0.251-.5-1.007-.253-0.252-.5-1.007-.253v-0.252L128.9,243.1c-0.084-.169-0.167-0.337-0.251-0.5h-0.5l-0.252-.5h-0.5l-0.252-.5h-0.5v-0.253l-0.755-.252-0.252-.5h-0.5l-0.5-.757h-0.5l-0.5-.757h-0.5l-0.756-1.01h-0.5l-0.756-1.009h-0.5l-1.511-1.766h-0.5L115.556,232l-3.273-3.028v-0.5l-1.51-1.261v-0.5l-1.259-1.009v-0.5l-0.755-.5v-0.505l-0.756-.5v-0.5l-0.755-.5v-0.5l-0.755-.5v-0.5l-0.5-.252v-0.5l-0.5-.252v-0.505l-0.5-.252v-0.5l-0.5-.252q-0.124-.5-0.251-1.009l-0.5-.252-0.252-1.01-0.5-.252-0.252-1.009-0.5-.253q-0.882-2.018-1.763-4.037H100.2v-0.5H99.947v-0.5H99.695l-0.5-1.514H98.94v-0.757H98.688l-0.252-1.009H98.184v-0.757H97.932v-0.5H97.681V204.5H97.429v-0.5H97.177l-0.252-1.514H96.674V201.72H96.422v-0.757H96.17v-0.757H95.918v-0.757H95.666v-0.757H95.415v-1.009H95.163v-0.757H94.911v-1.009H94.659v-1.01H94.408V193.9H94.156v-1.009H93.9v-1.262H93.652v-1.261H93.4v-1.514H93.149v-1.766H92.9l-0.252-4.29H92.393v-4.289H92.142a17.021,17.021,0,0,1,.252-5.551v-4.037h0.252V166.4H92.9v-2.019h0.252v-1.514H93.4V161.35h0.252v-1.262H93.9v-1.262h0.252v-1.261h0.252v-1.009h0.252v-1.01h0.252l0.252-1.766h0.252l0.252-1.766h0.252v-0.757H96.17V150.5h0.252l0.252-1.514h0.252v-0.5h0.252l0.252-1.514h0.252v-0.5h0.252v-0.757h0.252l0.252-1.009h0.252V143.94H98.94l0.252-1.009h0.252v-0.505h0.252v-0.757h0.252q0.251-.758.5-1.514H100.7v-0.5h0.252q0.126-.5.251-1.009l0.5-.252v-0.505h0.252v-0.5h0.252v-0.5h0.251v-0.5h0.252v-0.5l0.5-.253v-0.5h0.251v-0.5h0.252l0.252-.757,0.5-.252,0.252-1.009,0.5-.253v-0.5h0.252q0.124-.38.251-0.757l0.5-.253v-0.5l0.755-.5v-0.5l0.5-.253v-0.5q0.377-.254.755-0.5v-0.505l1.007-.757v-0.5l1.007-.757v-0.5l1.259-1.009V123.5l2.266-2.018v-0.5l1.007-.757,2.014-2.271h0.5l2.266-2.523h0.5l1.007-1.261h0.5q0.378-.506.755-1.01h0.5l0.755-1.009h0.5l0.5-.757h0.5v-0.252l0.755-.252,0.252-.5h0.5l0.5-.757h0.5l0.252-.5,0.756-.252v-0.252l1.007-.253q0.126-.252.251-0.5l0.756-.253v-0.252l1.51-.5,0.252-.5h0.5v-0.252h0.5V105.84h0.5v-0.252h0.5l0.252-.5,1.007-.252v-0.252h0.5v-0.253l1.51-.5v-0.253h0.756v-0.252h0.5v-0.252l1.007-.252V102.56h0.756v-0.252l1.007-.252V101.8H142.5v-0.252H143V101.3l2.266-.505v-0.252h0.5v-0.253l2.518-.5V99.532h0.755V99.28H149.8V99.028h1.008V98.776l2.014-.252V98.271l2.014-.252V97.766h1.259V97.514h1.259V97.262h1.51V97.009h1.763V96.757l5.79-.5C167.351,96.241,168.915,96.464,169.436,96Zm-3.022,16.148c-0.58.486-1.627,0-2.517,0.252v0.253h-1.763v0.252h-1.51v0.252h-1.511v0.253l-2.266.252v0.252H155.84v0.253h-1.007v0.252h-0.755v0.252H153.07v0.253h-0.755v0.252H151.56v0.252h-0.755v0.253h-0.756v0.252h-0.5v0.252H148.79v0.253h-0.5v0.252h-0.756v0.252h-0.5v0.252h-0.755v0.253l-1.511.5V118.2h-0.5v0.252h-0.5v0.252h-0.5v0.253h-0.5v0.252h-0.5v0.252h-0.5v0.253h-0.5v0.252h-0.5v0.252h-0.5l-0.252.505-1.007.252-0.252.5-1.007.252v0.252l-0.755.253-0.252.5h-0.5V123l-0.756.252q-0.124.252-.251,0.5h-0.5q-0.252.378-.5,0.757h-0.5l-0.5.757h-0.5q-0.378.5-.755,1.009h-0.5l-1.007,1.261h-0.5q-1.635,1.767-3.273,3.533l-3.021,2.775v0.5l-1.259,1.009v0.505l-1.007.757v0.5l-0.755.5v0.5l-0.755.5v0.5l-0.5.252v0.5l-0.5.252v0.5l-0.5.252v0.5l-0.5.252q-0.126.5-.251,1.009l-0.5.253-0.252,1.009-0.5.252v0.5H116.06v0.5h-0.252v0.5h-0.252v0.505h-0.251v0.5l-0.5.253v0.757h-0.252v0.5H114.3v0.5h-0.252l-0.5,1.514H113.29q-0.125.63-.251,1.261h-0.252v0.505h-0.252l-0.252,1.514h-0.251v0.5H111.78l-0.252,1.514h-0.252V156.3h-0.251v0.757h-0.252l-0.252,1.766h-0.252v1.01h-0.252q-0.124,1.008-.251,2.018h-0.252v1.262h-0.252v1.261H109.01v1.514h-0.251l-0.252,4.29c-0.487,1.752-.252,4.636-0.252,6.812a47.389,47.389,0,0,0,2.266,15.644v1.009h0.252q0.252,1.262.5,2.523h0.252v0.5h0.252v0.757h0.252q0.126,0.756.251,1.514h0.252v0.5h0.252v0.757h0.252q0.126,0.5.251,1.009h0.252v0.757h0.252l0.5,1.514h0.251v0.505H114.8v0.5h0.252V205h0.252v0.5h0.251v0.5h0.252v0.505l0.5,0.252q0.252,0.757.5,1.514l0.5,0.253v0.5h0.252v0.5l0.5,0.252v0.5l0.5,0.252v0.505l0.5,0.252v0.5l0.5,0.252v0.5l0.5,0.252v0.5l0.756,0.5v0.505l1.007,0.757v0.5q0.5,0.379,1.007.757v0.5l1.51,1.261v0.5l2.518,2.271,2.014,2.271h0.5l1.511,1.766h0.5l0.755,1.009h0.5l0.5,0.757h0.5l0.5,0.757h0.5l0.5,0.757h0.5l0.252,0.5,0.755,0.252v0.252h0.5l0.252,0.5,1.007,0.252c0.084,0.168.168,0.337,0.251,0.5l1.008,0.252c0.083,0.168.167,0.337,0.251,0.505h0.5v0.252h0.5v0.252h0.5V232h0.5q0.125,0.252.251,0.5l2.266,0.757v0.253h0.5v0.252l1.51,0.5v0.252h0.756v0.252h0.5v0.253h0.756v0.252h0.5v0.252l1.511,0.253v0.252h0.5v0.252l1.763,0.252v0.253h0.755v0.252h0.755V237.3h1.007v0.253h1.008V237.8h1.007v0.252h1.258v0.253h1.259v0.252h1.259v0.252l6.546,0.5v0.252c1.306,0.365,7.079.023,8.057-.252h3.021v-0.252h2.014V238.81h1.511v-0.252h1.511l10.071-2.775V235.53h0.5v-0.252h0.755v-0.252h0.5v-0.253h0.755v-0.252h0.5v-0.252l1.259-.253v-0.252l1.51-.505v-0.252h0.5v-0.252h0.5V232.5h0.5V232.25h0.5V232h0.5v-0.253h0.5l0.251-.5,1.007-.252,0.252-.5,1.007-.252,0.252-.5,1.007-.252,0.252-.5h0.5q0.125-.252.251-0.5h0.5q0.252-.378.5-0.757h0.5l0.252-.5h0.5l0.756-1.009h0.5l0.5-.757h0.5q0.5-.631,1.007-1.262h0.5l3.021-3.28,3.525-3.28v-0.505L221.3,216.1v-0.5l0.755-.5v-0.5q0.378-.252.755-0.5v-0.5l0.756-.5v-0.5l0.5-.253v-0.5l0.756-.5q0.124-.5.251-1.009l0.5-.253,0.252-.757h0.251v-0.5h0.252v-0.5l0.5-.252,0.5-1.514,0.5-.252q0.252-.757.5-1.514H228.6v-0.5h0.252v-0.5h0.252q0.252-.757.5-1.514h0.252v-0.757h0.252l0.252-1.01h0.251V199.7h0.252v-0.5h0.252l0.252-1.514h0.251v-0.5h0.252v-0.757h0.252v-0.757h0.252v-0.757h0.251V193.9h0.252v-0.757h0.252v-1.009h0.252v-1.009h0.252v-1.009h0.251V189.1h0.252v-1.261h0.252v-1.514h0.252v-1.766H234.9v-2.019h0.252v-3.028H235.4a29.231,29.231,0,0,0-.252-7.317v-3.28H234.9V166.9c-0.358-1.243-.635-3.085-1.007-4.29V161.35q-1.511-4.794-3.021-9.588h-0.252q-0.126-.505-0.251-1.01h-0.252V150h-0.252l-0.5-1.513h-0.251v-0.5h-0.252v-0.5H228.6v-0.5H228.35v-0.5H228.1v-0.5h-0.252v-0.5H227.6v-0.5h-0.252v-0.505l-0.5-.252-0.5-1.514h-0.252c-0.084-.252-0.167-0.5-0.251-0.757l-0.5-.252v-0.505l-0.5-.252v-0.5l-0.5-.252v-0.5H224.07l-0.252-.756q-0.251-.127-0.5-0.253v-0.5l-0.5-.253c-0.084-.252-0.167-0.5-0.251-0.757q-0.5-.378-1.007-0.757v-0.5l-1.008-.757v-0.5l-1.51-1.261-0.252-.757q-1.384-1.262-2.769-2.523l-1.259-1.514h-0.5q-0.629-.757-1.259-1.514h-0.5l-0.252-.5h-0.252l-0.5-.757a84.955,84.955,0,0,0-14.855-8.831h-0.755V116.69h-0.5v-0.252l-1.259-.253v-0.252l-8.56-2.523H184.29v-0.253h-1.259v-0.252h-1.51v-0.252h-1.763V112.4h-2.517C174.535,111.633,169.65,112.173,166.414,112.148Zm166.422,76.7c13.114-.288,24.059,1.853,32.982,5.8h0.755v0.252h0.5v0.253h0.755v0.252h0.5v0.252h0.5v0.253h0.5v0.252H370.1v0.252l1.511,0.5v0.252h0.5v0.253h0.5v0.252h0.5v0.252h0.5v0.253h0.5l0.252,0.5h0.5v0.253h0.5V199.2h0.5v0.252h0.5l0.252,0.5,1.007,0.252v0.252l0.756,0.253q0.125,0.252.251,0.5l1.007,0.253,0.252,0.5h0.5v0.253l0.755,0.252,0.252,0.5h0.5l0.5,0.757h0.5l0.252,0.5h0.5L384.2,205h0.5l0.755,1.009h0.5q0.377,0.506.755,1.01h0.5l1.007,1.261,0.755,0.253L391,210.8h0.5q0.376,0.505.755,1.01l2.014,1.766v0.5l2.266,2.019v0.5l1.511,1.261v0.5l1.007,0.757v0.5l0.755,0.505v0.5l0.756,0.5v0.5l0.755,0.5v0.5l0.5,0.252v0.505l0.5,0.252v0.5l0.5,0.252v0.5l0.5,0.252v0.5l0.5,0.252v0.5l0.5,0.252v0.5h0.252v0.5l0.5,0.253,0.5,1.514,0.5,0.252v0.5h0.251v0.5h0.252v0.505h0.252v0.5h0.252v0.5h0.251v0.5h0.252v0.5h0.252v0.505h0.252v0.5h0.251v0.5h0.252l0.252,1.01h0.252v0.5h0.252v0.757h0.251l0.252,1.009h0.252v0.757h0.252v0.5h0.251l2.77,8.326v1.01h0.252v1.009h0.251v1.009h0.252v1.262h0.252v1.261h0.252v1.262h0.252v1.514h0.251v1.766h0.252v2.018h0.252v2.776c0.622,2.255.251,5.878,0.252,8.579v3.532h-0.252v2.776h-0.252v2.018h-0.252V281.2h-0.251v1.514h-0.252v1.262H414.41v1.261h-0.252V286.5h-0.252v1.009h-0.251v1.009H413.4v1.01l-2.77,8.326h-0.251v0.505H410.13v0.757h-0.252v0.5h-0.252v0.757h-0.251l-0.5,1.514h-0.252v0.5h-0.252v0.757h-0.251l-0.252,1.009h-0.252l-0.252,1.009-0.5.252v0.5h-0.252v0.5h-0.252v0.5H406.1v0.5H405.85v0.5l-0.5.252-0.252,1.009-0.5.253-0.252,1.009-0.5.252-0.252,1.009h-0.252l-0.252.757-0.5.253v0.5l-0.756.5v0.5q-0.251.127-.5,0.253v0.5l-0.755.5v0.5l-0.5.252v0.5l-1.007.757v0.5l-1.007.757v0.5l-1.259,1.009-0.252.757-2.014,1.766v0.5l-1.259,1.009L391,326.868h-0.5l-2.015,2.271h-0.5q-0.5.631-1.007,1.262h-0.5l-0.755,1.009h-0.5l-0.5.757h-0.5l-0.5.757h-0.5l-0.5.757h-0.5l-0.252.5h-0.5l-0.252.5h-0.5l-0.252.5h-0.5l-0.252.5h-0.5l-0.252.5-1.007.252-0.252.5-1.007.252-0.252.5-1.51.5-0.252.5-9.819,4.542-2.266.5v0.253H361.79v0.252h-0.756v0.252h-0.755v0.253h-0.755v0.252h-0.756v0.252l-2.014.253v0.252H356v0.252H354.74V346.3h-1.007v0.252h-1.259V346.8h-1.259v0.252h-1.259v0.253h-1.762v0.252h-1.762v0.252h-2.266v0.253h-3.273v0.252h-2.518c-2.02,0-4.693.2-6.3-.252h-3.273V347.81h-2.265v-0.252h-1.763c-1.284-.376-3.063-0.63-4.28-1.009H319.24V346.3l-3.021-.505V345.54l-2.014-.253v-0.252h-0.756v-0.252h-0.755V344.53h-0.755v-0.252h-0.756v-0.252h-0.755v-0.253l-2.266-.5v-0.253h-0.5v-0.252H306.9v-0.252h-0.5v-0.253h-0.756v-0.252l-1.007-.252V341.5h-0.5V341.25h-0.756V341l-1.51-.5v-0.252h-0.5v-0.252h-0.5v-0.253h-0.5v-0.252h-0.5v-0.252h-0.5v-0.253h-0.5v-0.252h-0.5l-0.252-.5-1.51-.5-0.252-.5h-0.5v-0.252h-0.5l-0.252-.5-1.007-.252-0.252-.5h-0.5l-0.252-.5h-0.5l-0.252-.5h-0.5l-0.252-.5h-0.5l-0.252-.5h-0.5l-0.5-.757h-0.5l-0.5-.757h-0.5l-0.5-.757h-0.5L286.51,330.4h-0.5q-0.5-.632-1.007-1.262h-0.5q-0.63-.756-1.259-1.514l-0.756-.5v-0.253h-0.5l-2.014-2.271-1.511-1.261v-0.5l-2.014-1.766-0.252-.757-1.259-1.009v-0.5l-1.007-.757v-0.5l-1.007-.757v-0.5l-0.5-.252v-0.5l-0.755-.5v-0.5q-0.252-.126-0.5-0.253v-0.5l-0.756-.5v-0.5l-0.5-.253-0.252-1.009h-0.252l-0.252-.757-0.5-.252v-0.5h-0.252v-0.5l-0.5-.253-0.252-1.009-0.5-.252v-0.5h-0.251v-0.5H266.62v-0.5h-0.252v-0.5h-0.252l-0.252-1.009-0.5-.252v-0.5h-0.252V303.4h-0.252v-0.5h-0.251v-0.5h-0.252l-0.5-1.514H263.6v-0.757h-0.251l-0.252-1.009h-0.252v-0.757h-0.252v-0.505H262.34V297.1h-0.252V296.59h-0.252l-0.252-1.513h-0.251V294.32h-0.252v-0.757h-0.252v-0.757h-0.252v-0.757h-0.252v-0.757h-0.251v-1.009h-0.252v-0.757H259.57v-1.01h-0.252v-1.009c-1.591-4.771-2.264-11.137-2.266-17.41,0-2.395-.3-5.609.252-7.569v-2.776h0.252v-2.018h0.252v-1.766h0.251v-1.514h0.252v-1.262h0.252v-1.261h0.252v-1.01h0.252q0.124-1.134.251-2.27h0.252l0.252-1.767h0.252q0.126-.882.251-1.766h0.252v-0.757h0.252V243.6h0.252v-0.757h0.252q0.124-.756.251-1.514h0.252v-0.5h0.252l0.252-1.514h0.251v-0.5h0.252v-0.757H263.1l0.252-1.009H263.6v-0.757h0.252v-0.5H264.1l0.252-1.01h0.252v-0.5h0.251v-0.5h0.252v-0.505h0.252v-0.5h0.252v-0.5h0.251v-0.5h0.252v-0.5h0.252v-0.505h0.252v-0.5h0.252v-0.5l0.5-.252,0.5-1.514,0.5-.253v-0.5h0.252v-0.5l0.5-.252v-0.5l0.5-.252v-0.5l0.5-.252v-0.5l0.5-.252v-0.5l0.5-.252v-0.505l0.5-.252v-0.5l0.755-.5v-0.5l0.756-.5v-0.5l0.755-.505v-0.5l1.007-.757v-0.5l1.511-1.261v-0.5l2.518-2.271v-0.5l0.755-.5,1.762-2.019h0.5l2.266-2.523h0.5l1.007-1.261h0.5q0.378-.506.755-1.01h0.5L288.272,205h0.5l0.5-.757h0.5l0.252-.5h0.5l0.5-.757h0.5l0.252-.5,0.755-.252v-0.253h0.5l0.252-.5,1.007-.253v-0.252l0.755-.252,0.252-.505h0.5v-0.252h0.5l0.252-.5h0.5V199.2h0.5v-0.252h0.5v-0.253h0.5l0.252-.5,1.51-.5v-0.252h0.5v-0.253h0.5v-0.252l1.511-.5v-0.252h0.755v-0.252h0.5v-0.253l1.007-.252V195.16H305.9v-0.253h0.5v-0.252h0.755V194.4h0.5v-0.252h0.755V193.9h0.5v-0.252l9.316-2.776h1.259v-0.252H320.5v-0.252h1.259v-0.252h1.51v-0.253h1.511v-0.252h2.014v-0.252h2.266V189.1C330.217,188.775,332.069,189.535,332.836,188.852Zm1.51,15.9c-0.548.458-2.063,0.229-3.021,0.252l-5.035.5v0.252l-2.77.252v0.253h-1.007v0.252h-1.007v0.252H320.5v0.253l-2.014.252v0.252h-0.756v0.253h-0.755v0.252h-0.755v0.252h-0.755v0.253l-1.511.252v0.252h-0.5v0.252h-0.755v0.253h-0.5v0.252h-0.755v0.252l-1.51.5V210.8h-0.5v0.253l-2.266.757-0.252.5h-0.5v0.253h-0.5v0.252h-0.5v0.252h-0.5l-0.252.5-1.51.5v0.253l-0.756.252c-0.084.168-.167,0.336-0.251,0.5h-0.5l-0.252.5h-0.5v0.253l-0.756.252q-0.125.252-.251,0.5h-0.5q-0.252.378-.5,0.757h-0.5l-0.5.756h-0.5q-0.378.505-.755,1.01h-0.5l-1.007,1.261h-0.5l-2.769,3.028-3.273,3.028v0.5l-1.511,1.262v0.5l-0.755.5v0.5l-1.007.757v0.5l-0.5.252v0.5q-0.377.253-.755,0.5v0.5l-0.5.252v0.5l-0.5.252-0.252,1.009q-0.252.126-.5,0.253l-0.252.757h-0.252q-0.252.756-.5,1.513l-0.5.253v0.5h-0.252v0.5h-0.252v0.5h-0.251v0.5h-0.252v0.5H279.46v0.5h-0.252v0.5h-0.251l-0.5,1.514H278.2v0.757h-0.252q-0.125.5-.251,1.009h-0.252l-0.252,1.514h-0.252v0.5h-0.251l-0.252,1.514h-0.252v0.757h-0.252v0.757h-0.251v0.756h-0.252v0.757H275.18v1.01h-0.252v1.009h-0.252v1.009h-0.251v1.009h-0.252v1.262h-0.252v1.514h-0.252q-0.25,3.027-.5,6.055c-0.447,1.61-.252,4.281-0.252,6.308a46.4,46.4,0,0,0,2.014,14.13l0.252,2.019h0.252V287h0.252v0.757h0.251v0.757h0.252v0.757h0.252v0.757h0.252q0.126,0.758.251,1.514h0.252v0.5h0.252v0.757H277.7q0.126,0.5.251,1.009H278.2v0.757h0.252l0.5,1.514h0.251v0.5h0.252V297.1h0.252v0.5h0.252v0.5h0.251v0.5h0.252v0.5h0.252v0.5h0.252v0.5l0.5,0.252,0.252,1.009,0.5,0.253q0.126,0.5.251,1.009l0.5,0.252v0.5l0.5,0.252v0.505l0.5,0.252v0.5l0.5,0.252v0.5l0.755,0.5v0.5l0.755,0.5v0.5l1.007,0.757v0.5l1.259,1.009v0.5l3.273,3.028,3.273,3.532h0.5l1.007,1.262h0.5l0.5,0.756h0.5l0.5,0.757h0.5q0.251,0.38.5,0.757h0.5q0.126,0.253.251,0.5l0.756,0.252v0.253h0.5l0.252,0.5h0.5c0.084,0.168.167,0.337,0.251,0.5l0.756,0.252v0.253h0.5v0.252h0.5l0.252,0.5,1.51,0.505,0.252,0.5,1.511,0.5v0.253h0.5v0.252l1.511,0.5v0.252h0.755v0.252l1.007,0.253v0.252h0.755v0.252l1.008,0.253v0.252l2.266,0.5v0.253h0.5v0.252h1.007v0.252h0.755v0.253h0.756V329.9h0.755v0.252l3.021,0.5v0.252h1.259v0.253h1.259v0.252h1.511v0.252h1.762v0.253h2.014v0.252h3.525a17.923,17.923,0,0,0,5.791.252v-0.252h3.525v-0.252h2.014v-0.253h1.762V331.41h1.511v-0.252h1.259v-0.253h1.259v-0.252l2.014-.252v-0.253h1.007V329.9h0.755v-0.252h0.756v-0.253l1.762-.252v-0.252h0.5v-0.253l2.266-.5v-0.252l1.008-.253v-0.252h0.755v-0.252h0.5v-0.253l1.259-.252v-0.252l1.511-.5v-0.252h0.5v-0.253l1.511-.5,0.252-.5,1.51-.505,0.252-.5,1.007-.252v-0.253l0.756-.252c0.084-.168.167-0.337,0.251-0.5l1.007-.252,0.5-.757h0.5c0.084-.168.167-0.336,0.251-0.5h0.5q0.252-.378.5-0.757h0.5l0.5-.757h0.5l0.5-.756h0.5l1.007-1.262h0.5L380.924,314l0.756-.252v-0.5l3.021-2.775,0.252-.757,1.007-.757v-0.5l1.007-.757v-0.5l0.755-.5v-0.5l0.755-.5v-0.5l0.5-.252v-0.5l0.5-.252v-0.505l0.5-.252v-0.5l0.5-.252q0.126-.5.251-1.009l0.5-.253,0.252-1.009,0.5-.252v-0.5h0.252v-0.5h0.252v-0.5h0.252v-0.5h0.251v-0.5h0.252v-0.5h0.252V296.59h0.252v-0.5h0.251l0.5-1.514h0.252v-0.757h0.252q0.125-.5.251-1.009h0.252l0.252-1.262h0.252l3.021-10.6v-1.514H399.3v-1.514h0.251v-1.766h0.252v-2.776a28.5,28.5,0,0,0,0-9.588v-2.775h-0.252v-1.766H399.3v-1.514h-0.252V256.22l-3.021-10.6h-0.252v-0.5h-0.252v-0.757h-0.252q-0.126-.5-0.251-1.009h-0.252V242.6H394.52l-0.5-1.514h-0.251v-0.5h-0.252v-0.5h-0.252v-0.5h-0.252v-0.5h-0.251v-0.5h-0.252v-0.5h-0.252v-0.5l-0.5-.253q-0.25-.756-0.5-1.513H391l-0.252-.757q-0.25-.127-0.5-0.253l-0.252-1.009h-0.252c-0.084-.252-0.168-0.505-0.251-0.757l-0.5-.252v-0.5q-0.378-.252-0.755-0.5v-0.5l-0.5-.252v-0.5l-1.007-.757v-0.5l-0.755-.5v-0.5L384.7,227.2v-0.5l-4.028-3.785-2.266-2.523h-0.5L376.9,219.13h-0.5q-0.376-.505-0.755-1.01h-0.5l-0.5-.756h-0.5q-0.25-.38-0.5-0.757h-0.5c-0.084-.169-0.167-0.337-0.251-0.5l-0.756-.252V215.6h-0.5l-0.252-.5h-0.5c-0.084-.169-0.167-0.337-0.251-0.5l-0.756-.252v-0.253h-0.5v-0.252h-0.5l-0.252-.5h-0.5v-0.252h-0.5v-0.252h-0.5V212.57h-0.5v-0.253h-0.5l-0.252-.5-2.266-.757V210.8h-0.5v-0.252l-1.51-.5v-0.252h-0.755v-0.252h-0.5v-0.253h-0.755C352.608,206.245,344.27,204.837,334.346,204.748ZM172.457,280.442c5.389,0.365,11.433.38,15.862,1.766l2.517,0.253,9.316,2.775v0.253h0.5v0.252l1.511,0.252v0.253h0.5V286.5h0.755v0.252L204.432,287v0.253h0.755v0.252l1.511,0.5v0.252h0.5v0.252h0.5v0.253h0.5v0.252h0.5v0.252h0.5v0.253h0.5v0.252h0.5v0.252h0.5v0.253h0.5v0.252h0.5l0.252,0.5,1.511,0.5V291.8l0.755,0.253,0.252,0.5,1.007,0.253v0.252l0.755,0.252,0.252,0.5h0.5v0.252l0.755,0.253,0.252,0.5h0.5l0.5,0.757h0.5l0.252,0.5h0.5l0.5,0.757h0.5l0.755,1.009h0.5l0.755,1.009h0.5l1.259,1.514h0.5l3.273,3.533,3.776,3.532v0.5l1.511,1.261,0.252,0.757,0.755,0.5v0.5l1.007,0.757v0.5l0.756,0.5v0.5l0.5,0.253V314l0.755,0.5v0.5l0.5,0.253v0.5l0.5,0.253v0.5l0.5,0.253v0.5l0.5,0.253q0.126,0.5.251,1.009l0.5,0.252,0.252,0.757h0.252q0.251,0.757.5,1.514l0.5,0.252v0.5H242.7v0.5h0.252v0.5h0.252v0.5h0.252v0.5h0.251v0.505h0.252v0.5h0.252v0.5h0.252v0.5h0.252v0.5h0.251l0.252,1.009h0.252v0.5h0.252v0.756h0.251l0.252,1.01h0.252V330.4h0.252v0.5h0.252v0.757h0.251v0.5h0.252l0.252,1.514h0.252v0.757h0.251V335.2h0.252v0.757h0.252v0.757H249v0.756h0.251l0.252,1.767h0.252v1.009H250v1.009h0.252v1.009h0.251v1.262h0.252v1.262h0.252v1.261h0.252q0.25,2.523.5,5.046h0.252l0.252,7.57a6.753,6.753,0,0,1,.251,2.775h-0.251v5.3h-0.252v2.523h-0.252v2.019h-0.252v1.766h-0.251v1.514H251.01v1.261h-0.252v1.262h-0.252v1.262h-0.251v1.009H250v1.009h-0.252l-0.252,1.766h-0.252q-0.125.884-.251,1.766h-0.252v0.757h-0.252v0.757H248.24v0.757h-0.251l-0.252,1.514h-0.252v0.5h-0.252q-0.126.756-.251,1.514H246.73l-0.252,1.009h-0.252v0.757h-0.252q-0.126.5-.251,1.009h-0.252v0.757h-0.252q-0.252.758-.5,1.514h-0.252v0.5h-0.252v0.5H243.96v0.5h-0.252v0.5h-0.251v0.5h-0.252v0.5h-0.252v0.5H242.7v0.5l-0.5.252-0.5,1.514-0.5.253v0.5h-0.252v0.5h-0.252l-0.252.757-0.5.252-0.252,1.009h-0.252q-0.126.379-.251,0.757l-0.5.253v0.5l-0.755.5v0.5l-0.5.253v0.5l-0.755.5v0.5l-0.755.5v0.5l-1.008.757v0.5l-1.007.756v0.5l-1.762,1.514v0.5l-2.014,1.766-4.029,4.289h-0.5q-0.756.884-1.511,1.766h-0.5l-0.756,1.01h-0.5l-0.755,1.009h-0.5l-0.5.757h-0.5l-0.5.757h-0.5l-0.252.5h-0.5q-0.125.253-.251,0.5h-0.5l-0.252.5h-0.5l-0.252.5h-0.5l-0.252.5h-0.5l-0.252.505h-0.5l-0.252.5-1.511.5q-0.125.252-.251,0.5l-1.511.5-0.252.5h-0.5v0.252h-0.5v0.252h-0.5v0.253h-0.5v0.252h-0.5v0.252h-0.5v0.253l-1.511.5v0.253h-0.755v0.252h-0.5v0.252h-0.5V433.6h-0.5v0.252h-0.755V434.1h-0.5v0.252h-0.756v0.253h-0.5v0.252l-2.266.5v0.252h-0.5v0.252h-1.007v0.253h-0.755v0.252h-0.755v0.252h-0.756v0.253l-1.762.252v0.252l-3.021.5v0.252h-1.259c-1.147.353-2.843,0.666-4.029,1.009h-1.762V439.4h-2.266v0.252H178.5v0.252h-3.273c-2.538,0-5.958.342-8.056-.252H164.4c-2.058-.59-4.83-0.649-6.8-1.262h-1.258v-0.252l-2.266-.252v-0.252H153.07v-0.253l-2.769-.5v-0.253h-0.755v-0.252H148.79v-0.252h-0.755v-0.253H147.28v-0.252l-2.266-.5v-0.252h-0.5v-0.252h-0.755v-0.253L142.5,434.1V433.85h-0.5V433.6h-0.756v-0.253l-1.51-.5v-0.253h-0.5v-0.252h-0.755v-0.252l-1.007-.253v-0.252l-1.007-.252-0.252-.5h-0.5V430.57h-0.5v-0.253h-0.5v-0.252h-0.5v-0.252h-0.5l-0.252-.5h-0.5v-0.252l-1.007-.252v-0.253l-0.756-.252c-0.084-.168-0.168-0.337-0.251-0.5l-1.008-.252V427.29l-0.755-.253-0.252-.5h-0.5V426.28l-0.756-.252q-0.124-.252-0.251-0.5h-0.5q-0.252-.378-0.5-0.757h-0.5q-0.252-.378-0.5-0.756h-0.5l-0.5-.757h-0.5q-0.378-.505-0.755-1.01h-0.5l-1.007-1.261h-0.5l-1.51-1.766h-0.5l-1.762-2.019-3.273-3.028v-0.5l-1.763-1.514v-0.5l-1.258-1.009v-0.5l-1.008-.757v-0.5q-0.376-.253-0.755-0.5v-0.5l-0.755-.5v-0.505L108,406.6v-0.5l-0.755-.5v-0.5l-0.5-.252c-0.084-.253-0.167-0.5-0.251-0.757h-0.252v-0.5l-0.5-.252q-0.126-.505-0.251-1.01l-0.5-.252-0.252-.757h-0.252q-0.124-.5-0.251-1.009h-0.252v-0.5l-0.5-.252V399.03H103.22v-0.5h-0.252v-0.5h-0.252v-0.5h-0.252v-0.5l-0.5-.252v-0.5h-0.252l-0.252-1.009h-0.252v-0.757h-0.251v-0.5H100.7l-0.5-1.514H99.947v-0.757H99.695L99.443,390.7H99.191v-0.757H98.94v-0.5H98.688v-0.757H98.436v-0.5H98.184l-0.252-1.514H97.681V385.91H97.429v-0.757H97.177V384.4H96.925v-0.757H96.674v-0.757H96.422v-1.009H96.17v-1.009H95.918v-0.757H95.666V379.1H95.415v-1.261C93.89,373,93.4,366.962,93.4,360.678c0-3.035-.176-6.433.5-8.831l0.5-5.55h0.252v-1.262h0.252v-1.262h0.252v-1.009h0.252V341.5h0.252v-1.01h0.252v-1.009L98.94,330.4h0.252l0.252-1.01h0.252v-0.757h0.252q0.125-.5.251-1.009h0.252v-0.5H100.7v-0.757h0.252q0.251-.757.5-1.514h0.252v-0.5h0.252q0.252-.756.5-1.514l0.5-.252v-0.5h0.252v-0.5h0.251v-0.5h0.252v-0.5l0.5-.252q0.126-.5.251-1.009l0.5-.253,0.252-1.009,0.5-.252V317.28l0.5-.252v-0.5l0.5-.252v-0.5l0.5-.252v-0.5l0.5-.252v-0.5l0.756-.5v-0.5l0.5-.252v-0.5q0.5-.378,1.007-0.757v-0.5l0.756-.5v-0.505l1.259-1.009v-0.5l1.51-1.262,0.252-.757,2.77-2.523,3.021-3.28h0.5l1.259-1.514h0.5q0.5-.631,1.007-1.262h0.5l0.756-1.009,0.755-.252,0.252-.5h0.5l0.5-.757h0.5v-0.252l0.756-.252q0.126-.253.251-0.5h0.5l0.5-.757,1.007-.252q0.126-.253.251-0.5h0.5l0.252-.5h0.5l0.252-.5,1.007-.253,0.252-.5h0.5V291.04h0.5v-0.253h0.5v-0.252h0.5l0.252-.505h0.5v-0.252h0.5v-0.252h0.5v-0.253h0.5v-0.252h0.5v-0.252h0.5v-0.253h0.5v-0.252l1.51-.5v-0.252h0.756v-0.252l1.007-.253V286.75H142.5V286.5H143v-0.252l1.258-.253v-0.252h0.756v-0.252h0.5v-0.253l2.266-.5v-0.253h0.756v-0.252h0.755v-0.252l1.762-.253V283.47l1.763-.252v-0.253h1.007v-0.252l2.266-.252v-0.253l2.517-.252V281.7h1.511v-0.252h1.763V281.2H163.9v-0.252l6.042-.252C170.784,280.694,172,280.847,172.457,280.442Zm-4.784,16.148c-0.58.486-1.627,0-2.517,0.253V297.1h-1.763v0.252h-1.51V297.6h-1.511v0.252l-2.266.252v0.253l-2.014.252v0.252l-1.763.253v0.252h-0.755v0.252h-0.755v0.253h-0.756v0.252l-1.51.252v0.252h-0.5v0.253h-0.755v0.252h-0.5v0.252h-0.755v0.253l-1.007.252v0.252h-0.5v0.253h-0.755v0.252l-1.511.5V303.4h-0.5v0.252l-1.007.253-0.252.5-1.511.5q-0.125.252-.251,0.5l-1.007.253-0.252.5h-0.5v0.253h-0.5v0.252l-0.756.252c-0.084.169-.167,0.337-0.251,0.5h-0.5l-0.252.5h-0.5l-0.5.757h-0.5l-0.5.757h-0.5l-0.5.756h-0.5q-0.25.38-.5,0.757h-0.252l-0.252.5h-0.5l-1.259,1.514h-0.5l-2.517,2.775-1.511,1.262v0.5l-1.762,1.513v0.5l-0.5.252v0.253l-0.755.5v0.5q-0.378.252-.755,0.5l-0.252.757-0.5.252v0.5l-0.5.252v0.5l-0.756.505v0.5l-0.5.252-0.252,1.009-0.5.253q-0.124.378-.251,0.757h-0.252l-0.252,1.009-0.5.252v0.5h-0.252v0.5h-0.252v0.5h-0.252v0.5h-0.251v0.5l-0.5.253v0.5h-0.252v0.5h-0.252v0.757h-0.251v0.5h-0.252l-0.5,1.514H114.3V335.7h-0.252v0.5h-0.252l-0.252,1.261H113.29q-0.125.758-.251,1.514h-0.252v0.5h-0.252q-0.629,2.649-1.259,5.3c-2.74,8.228-2.758,22.8,0,31.034l0.252,2.019h0.252v0.757h0.252v0.757h0.251v0.757h0.252v0.757h0.252v0.757h0.252q0.126,0.756.251,1.514h0.252v0.5h0.252V384.4h0.252l0.252,1.009h0.251v0.757H114.8l0.5,1.514h0.251v0.5h0.252v0.5h0.252v0.5h0.252v0.5h0.252v0.5h0.251v0.5h0.252v0.5h0.252v0.5q0.252,0.126.5,0.253l0.252,1.009,0.5,0.252q0.126,0.5.251,1.009l0.5,0.253v0.5l0.5,0.253v0.5l0.5,0.253v0.5l0.5,0.253v0.5l0.755,0.5v0.5l0.755,0.5v0.5l0.756,0.5v0.5l1.258,1.009v0.5l2.015,1.766v0.5l2.014,1.766,0.755,1.009h0.5q0.5,0.632,1.007,1.262l0.755,0.5v0.253h0.5l1.007,1.261h0.5l0.5,0.757h0.5l0.5,0.757L135.7,411.9l0.252,0.5h0.5q0.125,0.252.251,0.5l0.756,0.252v0.252h0.5l0.252,0.5,0.755,0.252v0.253l1.007,0.252,0.252,0.5,1.007,0.252,0.252,0.5h0.5v0.253h0.5v0.252H143v0.252h0.5v0.253h0.5V417.2h0.5v0.252h0.5V417.7h0.5v0.252l1.511,0.5v0.252h0.755v0.252l1.007,0.253v0.252h0.756v0.252h0.5v0.252l1.511,0.253v0.252h0.755v0.252h0.755v0.253h0.756v0.252h0.755v0.252h0.755v0.253h1.008v0.252h1.007v0.252h1.007V422.5l2.266,0.252V423h1.51v0.253h1.511v0.252h2.014v0.252h2.77c1.6,0.447,4.271.253,6.294,0.253h2.518v-0.253h2.769v-0.252h2.014v-0.252h1.511V423h1.511v-0.252H186.3V422.5h1.008v-0.253h1.007v-0.252h1.007v-0.252h1.007v-0.253h0.755v-0.252l3.273-.757v-0.252h0.5v-0.253l1.51-.252v-0.252l1.007-.252v-0.253h0.756v-0.252l1.007-.252v-0.253h0.5v-0.252H200.4V417.7l1.007-.253V417.2l1.007-.252,0.252-.5h0.5v-0.252h0.5v-0.253h0.5v-0.252h0.5l0.252-.5,1.007-.253,0.251-.5,1.008-.253q0.125-.252.251-0.5h0.5v-0.253l0.755-.252,0.252-.505h0.5l0.5-.757h0.5l0.5-.757h0.5q0.251-.378.5-0.756h0.5q0.376-.505.755-1.01h0.5l1.51-1.766h0.5l2.014-2.271,2.266-2.018v-0.5L221.8,401.3v-0.5l1.007-.757v-0.5l1.007-.757v-0.5l0.5-.252v-0.5l0.755-.5v-0.5l0.5-.252,0.252-.757h0.251v-0.5l0.5-.252,0.252-.757h0.252q0.124-.5.251-1.009l0.5-.253q0.252-.756.5-1.513l0.5-.253q0.252-.756.5-1.514h0.252v-0.5h0.252v-0.5h0.252q0.252-.756.5-1.514h0.252v-0.757h0.252l0.252-1.009h0.251V384.4h0.252v-0.5h0.252v-0.756h0.252v-0.5h0.251l0.252-1.514h0.252v-0.757h0.252V379.6h0.252v-0.757h0.251v-0.757h0.252v-1.009h0.252V376.07h0.252v-1.01H234.9v-1.009h0.252V372.79H235.4v-1.262h0.252q0.252-3.027.5-6.056a31.418,31.418,0,0,0,0-10.344q-0.252-3.029-.5-6.056H235.4V347.81h-0.252v-1.261H234.9V345.54h-0.251v-1.01h-0.252v-1.009h-0.252v-1.009h-0.252v-0.757h-0.251V341h-0.252v-0.757h-0.252v-0.757h-0.252v-0.757H232.63q-0.125-.757-0.251-1.514h-0.252v-0.5h-0.252v-0.757h-0.252q-0.126-.505-0.251-1.01H231.12v-0.757h-0.252q-0.252-.756-0.5-1.514h-0.252v-0.5h-0.252v-0.5h-0.252v-0.5h-0.252v-0.5h-0.251v-0.5h-0.252v-0.5H228.6v-0.5c-4.278-6.831-9.156-13.518-15.61-18.167l-0.755-1.009h-0.5l-0.5-.757h-0.5l-0.5-.757h-0.5l-0.252-.5-0.755-.253V307.44h-0.5l-0.252-.5h-0.5q-0.126-.252-0.251-0.5h-0.5l-0.252-.5-1.007-.252-0.252-.5-1.007-.252-0.252-.5h-0.5V304.16h-0.5v-0.252h-0.5v-0.253h-0.5V303.4h-0.5v-0.252h-0.5V302.9h-0.5v-0.252l-1.511-.5v-0.252h-0.755v-0.252l-1.007-.253v-0.252l-1.511-.252v-0.253h-0.5v-0.252l-1.51-.252v-0.252H192.85v-0.253H192.1v-0.252H191.34v-0.252h-0.755v-0.253h-1.008v-0.252H188.57v-0.252h-1.007V298.1h-1.007v-0.252H185.3V297.6h-1.259v-0.253l-3.524-.252C177.062,296.1,171.9,296.624,167.673,296.59Z"/>
</svg>
